<svg width="127" height="127" viewBox="0 0 127 127" fill="none" xmlns="http://www.w3.org/2000/svg">
<rect x="15" y="44" width="96" height="40" rx="6" stroke="#E63946" stroke-width="4"/>
<rect x="21" y="38" width="61" height="16" rx="2" fill="#E63946"/>
<path d="M42.967 44.15V45.9H45.317V47.01H42.967V48.86H45.617V50H41.567V43.01H45.617V44.15H42.967ZM51.1492 45.84V47.02H46.9092V45.84H51.1492ZM54.1193 48.89H56.4193V50H52.7193V43.02H54.1193V48.89ZM58.0191 43.8C57.7725 43.8 57.5658 43.7233 57.3991 43.57C57.2391 43.41 57.1591 43.2133 57.1591 42.98C57.1591 42.7467 57.2391 42.5533 57.3991 42.4C57.5658 42.24 57.7725 42.16 58.0191 42.16C58.2658 42.16 58.4691 42.24 58.6291 42.4C58.7958 42.5533 58.8791 42.7467 58.8791 42.98C58.8791 43.2133 58.7958 43.41 58.6291 43.57C58.4691 43.7233 58.2658 43.8 58.0191 43.8ZM58.7091 44.46V50H57.3091V44.46H58.7091ZM61.4923 45.27C61.6723 45.0033 61.919 44.7867 62.2323 44.62C62.5523 44.4533 62.9157 44.37 63.3223 44.37C63.7957 44.37 64.2223 44.4867 64.6023 44.72C64.989 44.9533 65.2923 45.2867 65.5123 45.72C65.739 46.1467 65.8523 46.6433 65.8523 47.21C65.8523 47.7767 65.739 48.28 65.5123 48.72C65.2923 49.1533 64.989 49.49 64.6023 49.73C64.2223 49.97 63.7957 50.09 63.3223 50.09C62.909 50.09 62.5457 50.01 62.2323 49.85C61.9257 49.6833 61.679 49.47 61.4923 49.21V50H60.0923V42.6H61.4923V45.27ZM64.4223 47.21C64.4223 46.8767 64.3523 46.59 64.2123 46.35C64.079 46.1033 63.899 45.9167 63.6723 45.79C63.4523 45.6633 63.2123 45.6 62.9523 45.6C62.699 45.6 62.459 45.6667 62.2323 45.8C62.0123 45.9267 61.8323 46.1133 61.6923 46.36C61.559 46.6067 61.4923 46.8967 61.4923 47.23C61.4923 47.5633 61.559 47.8533 61.6923 48.1C61.8323 48.3467 62.0123 48.5367 62.2323 48.67C62.459 48.7967 62.699 48.86 62.9523 48.86C63.2123 48.86 63.4523 48.7933 63.6723 48.66C63.899 48.5267 64.079 48.3367 64.2123 48.09C64.3523 47.8433 64.4223 47.55 64.4223 47.21ZM68.2697 45.32C68.4497 45.0267 68.683 44.7967 68.9697 44.63C69.263 44.4633 69.5964 44.38 69.9697 44.38V45.85H69.5997C69.1597 45.85 68.8264 45.9533 68.5997 46.16C68.3797 46.3667 68.2697 46.7267 68.2697 47.24V50H66.8697V44.46H68.2697V45.32ZM70.5527 47.21C70.5527 46.65 70.6627 46.1533 70.8827 45.72C71.1093 45.2867 71.4127 44.9533 71.7927 44.72C72.1793 44.4867 72.6093 44.37 73.0827 44.37C73.496 44.37 73.856 44.4533 74.1627 44.62C74.476 44.7867 74.726 44.9967 74.9127 45.25V44.46H76.3227V50H74.9127V49.19C74.7327 49.45 74.4827 49.6667 74.1627 49.84C73.8493 50.0067 73.486 50.09 73.0727 50.09C72.606 50.09 72.1793 49.97 71.7927 49.73C71.4127 49.49 71.1093 49.1533 70.8827 48.72C70.6627 48.28 70.5527 47.7767 70.5527 47.21ZM74.9127 47.23C74.9127 46.89 74.846 46.6 74.7127 46.36C74.5793 46.1133 74.3993 45.9267 74.1727 45.8C73.946 45.6667 73.7027 45.6 73.4427 45.6C73.1827 45.6 72.9427 45.6633 72.7227 45.79C72.5027 45.9167 72.3227 46.1033 72.1827 46.35C72.0493 46.59 71.9827 46.8767 71.9827 47.21C71.9827 47.5433 72.0493 47.8367 72.1827 48.09C72.3227 48.3367 72.5027 48.5267 72.7227 48.66C72.9493 48.7933 73.1893 48.86 73.4427 48.86C73.7027 48.86 73.946 48.7967 74.1727 48.67C74.3993 48.5367 74.5793 48.35 74.7127 48.11C74.846 47.8633 74.9127 47.57 74.9127 47.23Z" fill="#D9D9D9"/>
<path d="M35.2495 63.28L36.2495 65.08L33.6495 66.02L36.2495 66.96L35.2095 68.82L33.0495 67.04L33.5095 69.8H31.4295L31.8695 67.04L29.7295 68.86L28.6295 66.94L31.2295 66L28.6495 65.1L29.6695 63.26L31.8895 65.02L31.4295 62.24H33.5295L33.0495 65.02L35.2495 63.28ZM45.6011 63.28L46.6011 65.08L44.0011 66.02L46.6011 66.96L45.5611 68.82L43.4011 67.04L43.8611 69.8H41.7811L42.2211 67.04L40.0811 68.86L38.9811 66.94L41.5811 66L39.0011 65.1L40.0211 63.26L42.2411 65.02L41.7811 62.24H43.8811L43.4011 65.02L45.6011 63.28ZM55.9527 63.28L56.9527 65.08L54.3527 66.02L56.9527 66.96L55.9127 68.82L53.7527 67.04L54.2127 69.8H52.1327L52.5727 67.04L50.4327 68.86L49.3327 66.94L51.9327 66L49.3527 65.1L50.3727 63.26L52.5927 65.02L52.1327 62.24H54.2327L53.7527 65.02L55.9527 63.28ZM66.3042 63.28L67.3042 65.08L64.7042 66.02L67.3042 66.96L66.2642 68.82L64.1042 67.04L64.5642 69.8H62.4842L62.9242 67.04L60.7842 68.86L59.6842 66.94L62.2842 66L59.7042 65.1L60.7242 63.26L62.9442 65.02L62.4842 62.24H64.5842L64.1042 65.02L66.3042 63.28ZM76.6558 63.28L77.6558 65.08L75.0558 66.02L77.6558 66.96L76.6158 68.82L74.4558 67.04L74.9158 69.8H72.8358L73.2758 67.04L71.1358 68.86L70.0358 66.94L72.6358 66L70.0558 65.1L71.0758 63.26L73.2958 65.02L72.8358 62.24H74.9358L74.4558 65.02L76.6558 63.28ZM87.0073 63.28L88.0073 65.08L85.4073 66.02L88.0073 66.96L86.9673 68.82L84.8073 67.04L85.2673 69.8H83.1873L83.6273 67.04L81.4873 68.86L80.3873 66.94L82.9873 66L80.4073 65.1L81.4273 63.26L83.6473 65.02L83.1873 62.24H85.2873L84.8073 65.02L87.0073 63.28ZM97.3589 63.28L98.3589 65.08L95.7589 66.02L98.3589 66.96L97.3189 68.82L95.1589 67.04L95.6189 69.8H93.5389L93.9789 67.04L91.8389 68.86L90.7389 66.94L93.3389 66L90.7589 65.1L91.7789 63.26L93.9989 65.02L93.5389 62.24H95.6389L95.1589 65.02L97.3589 63.28Z" fill="#F7F7FF"/>
<mask id="path-5-outside-1_31_105" maskUnits="userSpaceOnUse" x="27" y="61" width="73" height="10" fill="black">
<rect fill="white" x="27" y="61" width="73" height="10"/>
<path d="M35.2495 63.28L36.2495 65.08L33.6495 66.02L36.2495 66.96L35.2095 68.82L33.0495 67.04L33.5095 69.8H31.4295L31.8695 67.04L29.7295 68.86L28.6295 66.94L31.2295 66L28.6495 65.1L29.6695 63.26L31.8895 65.02L31.4295 62.24H33.5295L33.0495 65.02L35.2495 63.28ZM45.6011 63.28L46.6011 65.08L44.0011 66.02L46.6011 66.96L45.5611 68.82L43.4011 67.04L43.8611 69.8H41.7811L42.2211 67.04L40.0811 68.86L38.9811 66.94L41.5811 66L39.0011 65.1L40.0211 63.26L42.2411 65.02L41.7811 62.24H43.8811L43.4011 65.02L45.6011 63.28ZM55.9527 63.28L56.9527 65.08L54.3527 66.02L56.9527 66.96L55.9127 68.82L53.7527 67.04L54.2127 69.8H52.1327L52.5727 67.04L50.4327 68.86L49.3327 66.94L51.9327 66L49.3527 65.1L50.3727 63.26L52.5927 65.02L52.1327 62.24H54.2327L53.7527 65.02L55.9527 63.28ZM66.3042 63.28L67.3042 65.08L64.7042 66.02L67.3042 66.96L66.2642 68.82L64.1042 67.04L64.5642 69.8H62.4842L62.9242 67.04L60.7842 68.86L59.6842 66.94L62.2842 66L59.7042 65.1L60.7242 63.26L62.9442 65.02L62.4842 62.24H64.5842L64.1042 65.02L66.3042 63.28ZM76.6558 63.28L77.6558 65.08L75.0558 66.02L77.6558 66.96L76.6158 68.82L74.4558 67.04L74.9158 69.8H72.8358L73.2758 67.04L71.1358 68.86L70.0358 66.94L72.6358 66L70.0558 65.1L71.0758 63.26L73.2958 65.02L72.8358 62.24H74.9358L74.4558 65.02L76.6558 63.28ZM87.0073 63.28L88.0073 65.08L85.4073 66.02L88.0073 66.96L86.9673 68.82L84.8073 67.04L85.2673 69.8H83.1873L83.6273 67.04L81.4873 68.86L80.3873 66.94L82.9873 66L80.4073 65.1L81.4273 63.26L83.6473 65.02L83.1873 62.24H85.2873L84.8073 65.02L87.0073 63.28ZM97.3589 63.28L98.3589 65.08L95.7589 66.02L98.3589 66.96L97.3189 68.82L95.1589 67.04L95.6189 69.8H93.5389L93.9789 67.04L91.8389 68.86L90.7389 66.94L93.3389 66L90.7589 65.1L91.7789 63.26L93.9989 65.02L93.5389 62.24H95.6389L95.1589 65.02L97.3589 63.28Z"/>
</mask>
<path d="M35.2495 63.28L36.2495 65.08L33.6495 66.02L36.2495 66.96L35.2095 68.82L33.0495 67.04L33.5095 69.8H31.4295L31.8695 67.04L29.7295 68.86L28.6295 66.94L31.2295 66L28.6495 65.1L29.6695 63.26L31.8895 65.02L31.4295 62.24H33.5295L33.0495 65.02L35.2495 63.28ZM45.6011 63.28L46.6011 65.08L44.0011 66.02L46.6011 66.96L45.5611 68.82L43.4011 67.04L43.8611 69.8H41.7811L42.2211 67.04L40.0811 68.86L38.9811 66.94L41.5811 66L39.0011 65.1L40.0211 63.26L42.2411 65.02L41.7811 62.24H43.8811L43.4011 65.02L45.6011 63.28ZM55.9527 63.28L56.9527 65.08L54.3527 66.02L56.9527 66.96L55.9127 68.82L53.7527 67.04L54.2127 69.8H52.1327L52.5727 67.04L50.4327 68.86L49.3327 66.94L51.9327 66L49.3527 65.1L50.3727 63.26L52.5927 65.02L52.1327 62.24H54.2327L53.7527 65.02L55.9527 63.28ZM66.3042 63.28L67.3042 65.08L64.7042 66.02L67.3042 66.96L66.2642 68.82L64.1042 67.04L64.5642 69.8H62.4842L62.9242 67.04L60.7842 68.86L59.6842 66.94L62.2842 66L59.7042 65.1L60.7242 63.26L62.9442 65.02L62.4842 62.24H64.5842L64.1042 65.02L66.3042 63.28ZM76.6558 63.28L77.6558 65.08L75.0558 66.02L77.6558 66.96L76.6158 68.82L74.4558 67.04L74.9158 69.8H72.8358L73.2758 67.04L71.1358 68.86L70.0358 66.94L72.6358 66L70.0558 65.1L71.0758 63.26L73.2958 65.02L72.8358 62.24H74.9358L74.4558 65.02L76.6558 63.28ZM87.0073 63.28L88.0073 65.08L85.4073 66.02L88.0073 66.96L86.9673 68.82L84.8073 67.04L85.2673 69.8H83.1873L83.6273 67.04L81.4873 68.86L80.3873 66.94L82.9873 66L80.4073 65.1L81.4273 63.26L83.6473 65.02L83.1873 62.24H85.2873L84.8073 65.02L87.0073 63.28ZM97.3589 63.28L98.3589 65.08L95.7589 66.02L98.3589 66.96L97.3189 68.82L95.1589 67.04L95.6189 69.8H93.5389L93.9789 67.04L91.8389 68.86L90.7389 66.94L93.3389 66L90.7589 65.1L91.7789 63.26L93.9989 65.02L93.5389 62.24H95.6389L95.1589 65.02L97.3589 63.28Z" fill="#F7F7FF"/>
<path d="M35.2495 63.28L36.1237 62.7944L35.5522 61.7657L34.6292 62.4957L35.2495 63.28ZM36.2495 65.08L36.5895 66.0204L37.6941 65.6211L37.1237 64.5944L36.2495 65.08ZM33.6495 66.02L33.3095 65.0796L30.7084 66.02L33.3095 66.9604L33.6495 66.02ZM36.2495 66.96L37.1224 67.448L37.6972 66.42L36.5895 66.0196L36.2495 66.96ZM35.2095 68.82L34.5736 69.5917L35.4979 70.3534L36.0824 69.308L35.2095 68.82ZM33.0495 67.04L33.6855 66.2683L31.624 64.5694L32.0631 67.2044L33.0495 67.04ZM33.5095 69.8V70.8H34.69L34.4959 69.6356L33.5095 69.8ZM31.4295 69.8L30.442 69.6426L30.2575 70.8H31.4295V69.8ZM31.8695 67.04L32.8571 67.1974L33.2831 64.5251L31.2217 66.2782L31.8695 67.04ZM29.7295 68.86L28.8618 69.3571L29.4603 70.4017L30.3774 69.6218L29.7295 68.86ZM28.6295 66.94L28.2895 65.9996L27.1701 66.4043L27.7618 67.4371L28.6295 66.94ZM31.2295 66L31.5695 66.9404L34.2173 65.9832L31.5589 65.0558L31.2295 66ZM28.6495 65.1L27.7749 64.6152L27.1995 65.6533L28.3202 66.0442L28.6495 65.1ZM29.6695 63.26L30.2908 62.4764L29.3667 61.7438L28.7949 62.7752L29.6695 63.26ZM31.8895 65.02L31.2683 65.8036L33.2992 67.4137L32.8761 64.8568L31.8895 65.02ZM31.4295 62.24V61.24H30.2505L30.4429 62.4032L31.4295 62.24ZM33.5295 62.24L34.515 62.4101L34.717 61.24H33.5295V62.24ZM33.0495 65.02L32.0641 64.8499L31.6193 67.4262L33.6699 65.8043L33.0495 65.02ZM35.2495 63.28L34.3754 63.7656L35.3754 65.5656L36.2495 65.08L37.1237 64.5944L36.1237 62.7944L35.2495 63.28ZM36.2495 65.08L35.9095 64.1396L33.3095 65.0796L33.6495 66.02L33.9895 66.9604L36.5895 66.0204L36.2495 65.08ZM33.6495 66.02L33.3095 66.9604L35.9095 67.9004L36.2495 66.96L36.5895 66.0196L33.9895 65.0796L33.6495 66.02ZM36.2495 66.96L35.3767 66.472L34.3367 68.332L35.2095 68.82L36.0824 69.308L37.1224 67.448L36.2495 66.96ZM35.2095 68.82L35.8455 68.0483L33.6855 66.2683L33.0495 67.04L32.4136 67.8117L34.5736 69.5917L35.2095 68.82ZM33.0495 67.04L32.0631 67.2044L32.5231 69.9644L33.5095 69.8L34.4959 69.6356L34.0359 66.8756L33.0495 67.04ZM33.5095 69.8V68.8H31.4295V69.8V70.8H33.5095V69.8ZM31.4295 69.8L32.4171 69.9574L32.8571 67.1974L31.8695 67.04L30.882 66.8826L30.442 69.6426L31.4295 69.8ZM31.8695 67.04L31.2217 66.2782L29.0817 68.0982L29.7295 68.86L30.3774 69.6218L32.5174 67.8018L31.8695 67.04ZM29.7295 68.86L30.5972 68.3629L29.4972 66.4429L28.6295 66.94L27.7618 67.4371L28.8618 69.3571L29.7295 68.86ZM28.6295 66.94L28.9695 67.8804L31.5695 66.9404L31.2295 66L30.8895 65.0596L28.2895 65.9996L28.6295 66.94ZM31.2295 66L31.5589 65.0558L28.9789 64.1558L28.6495 65.1L28.3202 66.0442L30.9002 66.9442L31.2295 66ZM28.6495 65.1L29.5241 65.5848L30.5441 63.7448L29.6695 63.26L28.7949 62.7752L27.7749 64.6152L28.6495 65.1ZM29.6695 63.26L29.0483 64.0436L31.2683 65.8036L31.8895 65.02L32.5108 64.2364L30.2908 62.4764L29.6695 63.26ZM31.8895 65.02L32.8761 64.8568L32.4161 62.0768L31.4295 62.24L30.4429 62.4032L30.9029 65.1832L31.8895 65.02ZM31.4295 62.24V63.24H33.5295V62.24V61.24H31.4295V62.24ZM33.5295 62.24L32.5441 62.0699L32.0641 64.8499L33.0495 65.02L34.035 65.1901L34.515 62.4101L33.5295 62.24ZM33.0495 65.02L33.6699 65.8043L35.8699 64.0643L35.2495 63.28L34.6292 62.4957L32.4292 64.2357L33.0495 65.02ZM45.6011 63.28L46.4753 62.7944L45.9038 61.7657L44.9808 62.4957L45.6011 63.28ZM46.6011 65.08L46.9411 66.0204L48.0457 65.6211L47.4753 64.5944L46.6011 65.08ZM44.0011 66.02L43.6611 65.0796L41.0599 66.02L43.6611 66.9604L44.0011 66.02ZM46.6011 66.96L47.4739 67.448L48.0487 66.42L46.9411 66.0196L46.6011 66.96ZM45.5611 68.82L44.9251 69.5917L45.8494 70.3534L46.4339 69.308L45.5611 68.82ZM43.4011 67.04L44.0371 66.2683L41.9755 64.5694L42.4147 67.2044L43.4011 67.04ZM43.8611 69.8V70.8H45.0416L44.8475 69.6356L43.8611 69.8ZM41.7811 69.8L40.7936 69.6426L40.609 70.8H41.7811V69.8ZM42.2211 67.04L43.2086 67.1974L43.6347 64.5251L41.5732 66.2782L42.2211 67.04ZM40.0811 68.86L39.2134 69.3571L39.8119 70.4017L40.7289 69.6218L40.0811 68.86ZM38.9811 66.94L38.6411 65.9996L37.5217 66.4043L38.1134 67.4371L38.9811 66.94ZM41.5811 66L41.9211 66.9404L44.5689 65.9832L41.9105 65.0558L41.5811 66ZM39.0011 65.1L38.1265 64.6152L37.551 65.6533L38.6717 66.0442L39.0011 65.1ZM40.0211 63.26L40.6423 62.4764L39.7182 61.7438L39.1465 62.7752L40.0211 63.26ZM42.2411 65.02L41.6198 65.8036L43.6508 67.4137L43.2277 64.8568L42.2411 65.02ZM41.7811 62.24V61.24H40.602L40.7945 62.4032L41.7811 62.24ZM43.8811 62.24L44.8665 62.4101L45.0686 61.24H43.8811V62.24ZM43.4011 65.02L42.4157 64.8499L41.9708 67.4262L44.0214 65.8043L43.4011 65.02ZM45.6011 63.28L44.7269 63.7656L45.7269 65.5656L46.6011 65.08L47.4753 64.5944L46.4753 62.7944L45.6011 63.28ZM46.6011 65.08L46.2611 64.1396L43.6611 65.0796L44.0011 66.02L44.3411 66.9604L46.9411 66.0204L46.6011 65.08ZM44.0011 66.02L43.6611 66.9604L46.2611 67.9004L46.6011 66.96L46.9411 66.0196L44.3411 65.0796L44.0011 66.02ZM46.6011 66.96L45.7283 66.472L44.6883 68.332L45.5611 68.82L46.4339 69.308L47.4739 67.448L46.6011 66.96ZM45.5611 68.82L46.1971 68.0483L44.0371 66.2683L43.4011 67.04L42.7651 67.8117L44.9251 69.5917L45.5611 68.82ZM43.4011 67.04L42.4147 67.2044L42.8747 69.9644L43.8611 69.8L44.8475 69.6356L44.3875 66.8756L43.4011 67.04ZM43.8611 69.8V68.8H41.7811V69.8V70.8H43.8611V69.8ZM41.7811 69.8L42.7686 69.9574L43.2086 67.1974L42.2211 67.04L41.2336 66.8826L40.7936 69.6426L41.7811 69.8ZM42.2211 67.04L41.5732 66.2782L39.4332 68.0982L40.0811 68.86L40.7289 69.6218L42.8689 67.8018L42.2211 67.04ZM40.0811 68.86L40.9488 68.3629L39.8488 66.4429L38.9811 66.94L38.1134 67.4371L39.2134 69.3571L40.0811 68.86ZM38.9811 66.94L39.3211 67.8804L41.9211 66.9404L41.5811 66L41.2411 65.0596L38.6411 65.9996L38.9811 66.94ZM41.5811 66L41.9105 65.0558L39.3305 64.1558L39.0011 65.1L38.6717 66.0442L41.2517 66.9442L41.5811 66ZM39.0011 65.1L39.8757 65.5848L40.8957 63.7448L40.0211 63.26L39.1465 62.7752L38.1265 64.6152L39.0011 65.1ZM40.0211 63.26L39.3998 64.0436L41.6198 65.8036L42.2411 65.02L42.8623 64.2364L40.6423 62.4764L40.0211 63.26ZM42.2411 65.02L43.2277 64.8568L42.7677 62.0768L41.7811 62.24L40.7945 62.4032L41.2545 65.1832L42.2411 65.02ZM41.7811 62.24V63.24H43.8811V62.24V61.24H41.7811V62.24ZM43.8811 62.24L42.8957 62.0699L42.4157 64.8499L43.4011 65.02L44.3865 65.1901L44.8665 62.4101L43.8811 62.24ZM43.4011 65.02L44.0214 65.8043L46.2214 64.0643L45.6011 63.28L44.9808 62.4957L42.7808 64.2357L43.4011 65.02ZM55.9527 63.28L56.8268 62.7944L56.2553 61.7657L55.3323 62.4957L55.9527 63.28ZM56.9527 65.08L57.2927 66.0204L58.3972 65.6211L57.8268 64.5944L56.9527 65.08ZM54.3527 66.02L54.0127 65.0796L51.4115 66.02L54.0127 66.9604L54.3527 66.02ZM56.9527 66.96L57.8255 67.448L58.4003 66.42L57.2927 66.0196L56.9527 66.96ZM55.9127 68.82L55.2767 69.5917L56.201 70.3534L56.7855 69.308L55.9127 68.82ZM53.7527 67.04L54.3886 66.2683L52.3271 64.5694L52.7663 67.2044L53.7527 67.04ZM54.2127 69.8V70.8H55.3931L55.1991 69.6356L54.2127 69.8ZM52.1327 69.8L51.1451 69.6426L50.9606 70.8H52.1327V69.8ZM52.5727 67.04L53.5602 67.1974L53.9862 64.5251L51.9248 66.2782L52.5727 67.04ZM50.4327 68.86L49.565 69.3571L50.1634 70.4017L51.0805 69.6218L50.4327 68.86ZM49.3327 66.94L48.9927 65.9996L47.8732 66.4043L48.465 67.4371L49.3327 66.94ZM51.9327 66L52.2727 66.9404L54.9204 65.9832L52.262 65.0558L51.9327 66ZM49.3527 65.1L48.4781 64.6152L47.9026 65.6533L49.0233 66.0442L49.3527 65.1ZM50.3727 63.26L50.9939 62.4764L50.0698 61.7438L49.4981 62.7752L50.3727 63.26ZM52.5927 65.02L51.9714 65.8036L54.0023 67.4137L53.5792 64.8568L52.5927 65.02ZM52.1327 62.24V61.24H50.9536L51.1461 62.4032L52.1327 62.24ZM54.2327 62.24L55.2181 62.4101L55.4201 61.24H54.2327V62.24ZM53.7527 65.02L52.7672 64.8499L52.3224 67.4262L54.373 65.8043L53.7527 65.02ZM55.9527 63.28L55.0785 63.7656L56.0785 65.5656L56.9527 65.08L57.8268 64.5944L56.8268 62.7944L55.9527 63.28ZM56.9527 65.08L56.6127 64.1396L54.0127 65.0796L54.3527 66.02L54.6927 66.9604L57.2927 66.0204L56.9527 65.08ZM54.3527 66.02L54.0127 66.9604L56.6127 67.9004L56.9527 66.96L57.2927 66.0196L54.6927 65.0796L54.3527 66.02ZM56.9527 66.96L56.0798 66.472L55.0398 68.332L55.9127 68.82L56.7855 69.308L57.8255 67.448L56.9527 66.96ZM55.9127 68.82L56.5486 68.0483L54.3886 66.2683L53.7527 67.04L53.1167 67.8117L55.2767 69.5917L55.9127 68.82ZM53.7527 67.04L52.7663 67.2044L53.2263 69.9644L54.2127 69.8L55.1991 69.6356L54.7391 66.8756L53.7527 67.04ZM54.2127 69.8V68.8H52.1327V69.8V70.8H54.2127V69.8ZM52.1327 69.8L53.1202 69.9574L53.5602 67.1974L52.5727 67.04L51.5851 66.8826L51.1451 69.6426L52.1327 69.8ZM52.5727 67.04L51.9248 66.2782L49.7848 68.0982L50.4327 68.86L51.0805 69.6218L53.2205 67.8018L52.5727 67.04ZM50.4327 68.86L51.3003 68.3629L50.2003 66.4429L49.3327 66.94L48.465 67.4371L49.565 69.3571L50.4327 68.86ZM49.3327 66.94L49.6727 67.8804L52.2727 66.9404L51.9327 66L51.5927 65.0596L48.9927 65.9996L49.3327 66.94ZM51.9327 66L52.262 65.0558L49.682 64.1558L49.3527 65.1L49.0233 66.0442L51.6033 66.9442L51.9327 66ZM49.3527 65.1L50.2273 65.5848L51.2473 63.7448L50.3727 63.26L49.4981 62.7752L48.4781 64.6152L49.3527 65.1ZM50.3727 63.26L49.7514 64.0436L51.9714 65.8036L52.5927 65.02L53.2139 64.2364L50.9939 62.4764L50.3727 63.26ZM52.5927 65.02L53.5792 64.8568L53.1192 62.0768L52.1327 62.24L51.1461 62.4032L51.6061 65.1832L52.5927 65.02ZM52.1327 62.24V63.24H54.2327V62.24V61.24H52.1327V62.24ZM54.2327 62.24L53.2472 62.0699L52.7672 64.8499L53.7527 65.02L54.7381 65.1901L55.2181 62.4101L54.2327 62.24ZM53.7527 65.02L54.373 65.8043L56.573 64.0643L55.9527 63.28L55.3323 62.4957L53.1323 64.2357L53.7527 65.02ZM66.3042 63.28L67.1784 62.7944L66.6069 61.7657L65.6839 62.4957L66.3042 63.28ZM67.3042 65.08L67.6442 66.0204L68.7488 65.6211L68.1784 64.5944L67.3042 65.08ZM64.7042 66.02L64.3642 65.0796L61.763 66.02L64.3642 66.9604L64.7042 66.02ZM67.3042 66.96L68.177 67.448L68.7518 66.42L67.6442 66.0196L67.3042 66.96ZM66.2642 68.82L65.6283 69.5917L66.5525 70.3534L67.137 69.308L66.2642 68.82ZM64.1042 67.04L64.7402 66.2683L62.6787 64.5694L63.1178 67.2044L64.1042 67.04ZM64.5642 69.8V70.8H65.7447L65.5506 69.6356L64.5642 69.8ZM62.4842 69.8L61.4967 69.6426L61.3122 70.8H62.4842V69.8ZM62.9242 67.04L63.9117 67.1974L64.3378 64.5251L62.2764 66.2782L62.9242 67.04ZM60.7842 68.86L59.9165 69.3571L60.515 70.4017L61.4321 69.6218L60.7842 68.86ZM59.6842 66.94L59.3442 65.9996L58.2248 66.4043L58.8165 67.4371L59.6842 66.94ZM62.2842 66L62.6242 66.9404L65.272 65.9832L62.6136 65.0558L62.2842 66ZM59.7042 65.1L58.8296 64.6152L58.2541 65.6533L59.3748 66.0442L59.7042 65.1ZM60.7242 63.26L61.3455 62.4764L60.4214 61.7438L59.8496 62.7752L60.7242 63.26ZM62.9442 65.02L62.323 65.8036L64.3539 67.4137L63.9308 64.8568L62.9442 65.02ZM62.4842 62.24V61.24H61.3052L61.4976 62.4032L62.4842 62.24ZM64.5842 62.24L65.5696 62.4101L65.7717 61.24H64.5842V62.24ZM64.1042 65.02L63.1188 64.8499L62.674 67.4262L64.7246 65.8043L64.1042 65.02ZM66.3042 63.28L65.4301 63.7656L66.4301 65.5656L67.3042 65.08L68.1784 64.5944L67.1784 62.7944L66.3042 63.28ZM67.3042 65.08L66.9642 64.1396L64.3642 65.0796L64.7042 66.02L65.0442 66.9604L67.6442 66.0204L67.3042 65.08ZM64.7042 66.02L64.3642 66.9604L66.9642 67.9004L67.3042 66.96L67.6442 66.0196L65.0442 65.0796L64.7042 66.02ZM67.3042 66.96L66.4314 66.472L65.3914 68.332L66.2642 68.82L67.137 69.308L68.177 67.448L67.3042 66.96ZM66.2642 68.82L66.9002 68.0483L64.7402 66.2683L64.1042 67.04L63.4683 67.8117L65.6283 69.5917L66.2642 68.82ZM64.1042 67.04L63.1178 67.2044L63.5778 69.9644L64.5642 69.8L65.5506 69.6356L65.0906 66.8756L64.1042 67.04ZM64.5642 69.8V68.8H62.4842V69.8V70.8H64.5642V69.8ZM62.4842 69.8L63.4717 69.9574L63.9117 67.1974L62.9242 67.04L61.9367 66.8826L61.4967 69.6426L62.4842 69.8ZM62.9242 67.04L62.2764 66.2782L60.1364 68.0982L60.7842 68.86L61.4321 69.6218L63.5721 67.8018L62.9242 67.04ZM60.7842 68.86L61.6519 68.3629L60.5519 66.4429L59.6842 66.94L58.8165 67.4371L59.9165 69.3571L60.7842 68.86ZM59.6842 66.94L60.0242 67.8804L62.6242 66.9404L62.2842 66L61.9442 65.0596L59.3442 65.9996L59.6842 66.94ZM62.2842 66L62.6136 65.0558L60.0336 64.1558L59.7042 65.1L59.3748 66.0442L61.9548 66.9442L62.2842 66ZM59.7042 65.1L60.5788 65.5848L61.5988 63.7448L60.7242 63.26L59.8496 62.7752L58.8296 64.6152L59.7042 65.1ZM60.7242 63.26L60.103 64.0436L62.323 65.8036L62.9442 65.02L63.5655 64.2364L61.3455 62.4764L60.7242 63.26ZM62.9442 65.02L63.9308 64.8568L63.4708 62.0768L62.4842 62.24L61.4976 62.4032L61.9576 65.1832L62.9442 65.02ZM62.4842 62.24V63.24H64.5842V62.24V61.24H62.4842V62.24ZM64.5842 62.24L63.5988 62.0699L63.1188 64.8499L64.1042 65.02L65.0896 65.1901L65.5696 62.4101L64.5842 62.24ZM64.1042 65.02L64.7246 65.8043L66.9246 64.0643L66.3042 63.28L65.6839 62.4957L63.4839 64.2357L64.1042 65.02ZM76.6558 63.28L77.5299 62.7944L76.9584 61.7657L76.0354 62.4957L76.6558 63.28ZM77.6558 65.08L77.9958 66.0204L79.1003 65.6211L78.5299 64.5944L77.6558 65.08ZM75.0558 66.02L74.7158 65.0796L72.1146 66.02L74.7158 66.9604L75.0558 66.02ZM77.6558 66.96L78.5286 67.448L79.1034 66.42L77.9958 66.0196L77.6558 66.96ZM76.6158 68.82L75.9798 69.5917L76.9041 70.3534L77.4886 69.308L76.6158 68.82ZM74.4558 67.04L75.0917 66.2683L73.0302 64.5694L73.4694 67.2044L74.4558 67.04ZM74.9158 69.8V70.8H76.0962L75.9022 69.6356L74.9158 69.8ZM72.8358 69.8L71.8483 69.6426L71.6637 70.8H72.8358V69.8ZM73.2758 67.04L74.2633 67.1974L74.6893 64.5251L72.6279 66.2782L73.2758 67.04ZM71.1358 68.86L70.2681 69.3571L70.8666 70.4017L71.7836 69.6218L71.1358 68.86ZM70.0358 66.94L69.6958 65.9996L68.5764 66.4043L69.1681 67.4371L70.0358 66.94ZM72.6358 66L72.9758 66.9404L75.6236 65.9832L72.9652 65.0558L72.6358 66ZM70.0558 65.1L69.1812 64.6152L68.6057 65.6533L69.7264 66.0442L70.0558 65.1ZM71.0758 63.26L71.697 62.4764L70.7729 61.7438L70.2012 62.7752L71.0758 63.26ZM73.2958 65.02L72.6745 65.8036L74.7055 67.4137L74.2824 64.8568L73.2958 65.02ZM72.8358 62.24V61.24H71.6567L71.8492 62.4032L72.8358 62.24ZM74.9358 62.24L75.9212 62.4101L76.1232 61.24H74.9358V62.24ZM74.4558 65.02L73.4704 64.8499L73.0255 67.4262L75.0761 65.8043L74.4558 65.02ZM76.6558 63.28L75.7816 63.7656L76.7816 65.5656L77.6558 65.08L78.5299 64.5944L77.5299 62.7944L76.6558 63.28ZM77.6558 65.08L77.3158 64.1396L74.7158 65.0796L75.0558 66.02L75.3958 66.9604L77.9958 66.0204L77.6558 65.08ZM75.0558 66.02L74.7158 66.9604L77.3158 67.9004L77.6558 66.96L77.9958 66.0196L75.3958 65.0796L75.0558 66.02ZM77.6558 66.96L76.783 66.472L75.743 68.332L76.6158 68.82L77.4886 69.308L78.5286 67.448L77.6558 66.96ZM76.6158 68.82L77.2517 68.0483L75.0917 66.2683L74.4558 67.04L73.8198 67.8117L75.9798 69.5917L76.6158 68.82ZM74.4558 67.04L73.4694 67.2044L73.9294 69.9644L74.9158 69.8L75.9022 69.6356L75.4422 66.8756L74.4558 67.04ZM74.9158 69.8V68.8H72.8358V69.8V70.8H74.9158V69.8ZM72.8358 69.8L73.8233 69.9574L74.2633 67.1974L73.2758 67.04L72.2883 66.8826L71.8483 69.6426L72.8358 69.8ZM73.2758 67.04L72.6279 66.2782L70.4879 68.0982L71.1358 68.86L71.7836 69.6218L73.9236 67.8018L73.2758 67.04ZM71.1358 68.86L72.0035 68.3629L70.9035 66.4429L70.0358 66.94L69.1681 67.4371L70.2681 69.3571L71.1358 68.86ZM70.0358 66.94L70.3758 67.8804L72.9758 66.9404L72.6358 66L72.2958 65.0596L69.6958 65.9996L70.0358 66.94ZM72.6358 66L72.9652 65.0558L70.3852 64.1558L70.0558 65.1L69.7264 66.0442L72.3064 66.9442L72.6358 66ZM70.0558 65.1L70.9304 65.5848L71.9504 63.7448L71.0758 63.26L70.2012 62.7752L69.1812 64.6152L70.0558 65.1ZM71.0758 63.26L70.4545 64.0436L72.6745 65.8036L73.2958 65.02L73.917 64.2364L71.697 62.4764L71.0758 63.26ZM73.2958 65.02L74.2824 64.8568L73.8224 62.0768L72.8358 62.24L71.8492 62.4032L72.3092 65.1832L73.2958 65.02ZM72.8358 62.24V63.24H74.9358V62.24V61.24H72.8358V62.24ZM74.9358 62.24L73.9504 62.0699L73.4704 64.8499L74.4558 65.02L75.4412 65.1901L75.9212 62.4101L74.9358 62.24ZM74.4558 65.02L75.0761 65.8043L77.2761 64.0643L76.6558 63.28L76.0354 62.4957L73.8354 64.2357L74.4558 65.02ZM87.0073 63.28L87.8815 62.7944L87.31 61.7657L86.387 62.4957L87.0073 63.28ZM88.0073 65.08L88.3473 66.0204L89.4519 65.6211L88.8815 64.5944L88.0073 65.08ZM85.4073 66.02L85.0673 65.0796L82.4662 66.02L85.0673 66.9604L85.4073 66.02ZM88.0073 66.96L88.8802 67.448L89.455 66.42L88.3473 66.0196L88.0073 66.96ZM86.9673 68.82L86.3314 69.5917L87.2557 70.3534L87.8402 69.308L86.9673 68.82ZM84.8073 67.04L85.4433 66.2683L83.3818 64.5694L83.8209 67.2044L84.8073 67.04ZM85.2673 69.8V70.8H86.4478L86.2537 69.6356L85.2673 69.8ZM83.1873 69.8L82.1998 69.6426L82.0153 70.8H83.1873V69.8ZM83.6273 67.04L84.6149 67.1974L85.0409 64.5251L82.9795 66.2782L83.6273 67.04ZM81.4873 68.86L80.6197 69.3571L81.2181 70.4017L82.1352 69.6218L81.4873 68.86ZM80.3873 66.94L80.0473 65.9996L78.9279 66.4043L79.5197 67.4371L80.3873 66.94ZM82.9873 66L83.3273 66.9404L85.9751 65.9832L83.3167 65.0558L82.9873 66ZM80.4073 65.1L79.5327 64.6152L78.9573 65.6533L80.078 66.0442L80.4073 65.1ZM81.4273 63.26L82.0486 62.4764L81.1245 61.7438L80.5527 62.7752L81.4273 63.26ZM83.6473 65.02L83.0261 65.8036L85.057 67.4137L84.6339 64.8568L83.6473 65.02ZM83.1873 62.24V61.24H82.0083L82.2008 62.4032L83.1873 62.24ZM85.2873 62.24L86.2728 62.4101L86.4748 61.24H85.2873V62.24ZM84.8073 65.02L83.8219 64.8499L83.3771 67.4262L85.4277 65.8043L84.8073 65.02ZM87.0073 63.28L86.1332 63.7656L87.1332 65.5656L88.0073 65.08L88.8815 64.5944L87.8815 62.7944L87.0073 63.28ZM88.0073 65.08L87.6673 64.1396L85.0673 65.0796L85.4073 66.02L85.7473 66.9604L88.3473 66.0204L88.0073 65.08ZM85.4073 66.02L85.0673 66.9604L87.6673 67.9004L88.0073 66.96L88.3473 66.0196L85.7473 65.0796L85.4073 66.02ZM88.0073 66.96L87.1345 66.472L86.0945 68.332L86.9673 68.82L87.8402 69.308L88.8802 67.448L88.0073 66.96ZM86.9673 68.82L87.6033 68.0483L85.4433 66.2683L84.8073 67.04L84.1714 67.8117L86.3314 69.5917L86.9673 68.82ZM84.8073 67.04L83.8209 67.2044L84.2809 69.9644L85.2673 69.8L86.2537 69.6356L85.7937 66.8756L84.8073 67.04ZM85.2673 69.8V68.8H83.1873V69.8V70.8H85.2673V69.8ZM83.1873 69.8L84.1749 69.9574L84.6149 67.1974L83.6273 67.04L82.6398 66.8826L82.1998 69.6426L83.1873 69.8ZM83.6273 67.04L82.9795 66.2782L80.8395 68.0982L81.4873 68.86L82.1352 69.6218L84.2752 67.8018L83.6273 67.04ZM81.4873 68.86L82.355 68.3629L81.255 66.4429L80.3873 66.94L79.5197 67.4371L80.6197 69.3571L81.4873 68.86ZM80.3873 66.94L80.7273 67.8804L83.3273 66.9404L82.9873 66L82.6473 65.0596L80.0473 65.9996L80.3873 66.94ZM82.9873 66L83.3167 65.0558L80.7367 64.1558L80.4073 65.1L80.078 66.0442L82.658 66.9442L82.9873 66ZM80.4073 65.1L81.2819 65.5848L82.3019 63.7448L81.4273 63.26L80.5527 62.7752L79.5327 64.6152L80.4073 65.1ZM81.4273 63.26L80.8061 64.0436L83.0261 65.8036L83.6473 65.02L84.2686 64.2364L82.0486 62.4764L81.4273 63.26ZM83.6473 65.02L84.6339 64.8568L84.1739 62.0768L83.1873 62.24L82.2008 62.4032L82.6608 65.1832L83.6473 65.02ZM83.1873 62.24V63.24H85.2873V62.24V61.24H83.1873V62.24ZM85.2873 62.24L84.3019 62.0699L83.8219 64.8499L84.8073 65.02L85.7928 65.1901L86.2728 62.4101L85.2873 62.24ZM84.8073 65.02L85.4277 65.8043L87.6277 64.0643L87.0073 63.28L86.387 62.4957L84.187 64.2357L84.8073 65.02ZM97.3589 63.28L98.2331 62.7944L97.6616 61.7657L96.7386 62.4957L97.3589 63.28ZM98.3589 65.08L98.6989 66.0204L99.8035 65.6211L99.2331 64.5944L98.3589 65.08ZM95.7589 66.02L95.4189 65.0796L92.8177 66.02L95.4189 66.9604L95.7589 66.02ZM98.3589 66.96L99.2317 67.448L99.8065 66.42L98.6989 66.0196L98.3589 66.96ZM97.3189 68.82L96.6829 69.5917L97.6072 70.3534L98.1917 69.308L97.3189 68.82ZM95.1589 67.04L95.7949 66.2683L93.7334 64.5694L94.1725 67.2044L95.1589 67.04ZM95.6189 69.8V70.8H96.7994L96.6053 69.6356L95.6189 69.8ZM93.5389 69.8L92.5514 69.6426L92.3669 70.8H93.5389V69.8ZM93.9789 67.04L94.9664 67.1974L95.3925 64.5251L93.3311 66.2782L93.9789 67.04ZM91.8389 68.86L90.9712 69.3571L91.5697 70.4017L92.4868 69.6218L91.8389 68.86ZM90.7389 66.94L90.3989 65.9996L89.2795 66.4043L89.8712 67.4371L90.7389 66.94ZM93.3389 66L93.6789 66.9404L96.3267 65.9832L93.6683 65.0558L93.3389 66ZM90.7589 65.1L89.8843 64.6152L89.3088 65.6533L90.4295 66.0442L90.7589 65.1ZM91.7789 63.26L92.4002 62.4764L91.4761 61.7438L90.9043 62.7752L91.7789 63.26ZM93.9989 65.02L93.3777 65.8036L95.4086 67.4137L94.9855 64.8568L93.9989 65.02ZM93.5389 62.24V61.24H92.3598L92.5523 62.4032L93.5389 62.24ZM95.6389 62.24L96.6243 62.4101L96.8264 61.24H95.6389V62.24ZM95.1589 65.02L94.1735 64.8499L93.7287 67.4262L95.7792 65.8043L95.1589 65.02ZM97.3589 63.28L96.4847 63.7656L97.4847 65.5656L98.3589 65.08L99.2331 64.5944L98.2331 62.7944L97.3589 63.28ZM98.3589 65.08L98.0189 64.1396L95.4189 65.0796L95.7589 66.02L96.0989 66.9604L98.6989 66.0204L98.3589 65.08ZM95.7589 66.02L95.4189 66.9604L98.0189 67.9004L98.3589 66.96L98.6989 66.0196L96.0989 65.0796L95.7589 66.02ZM98.3589 66.96L97.4861 66.472L96.4461 68.332L97.3189 68.82L98.1917 69.308L99.2317 67.448L98.3589 66.96ZM97.3189 68.82L97.9549 68.0483L95.7949 66.2683L95.1589 67.04L94.5229 67.8117L96.6829 69.5917L97.3189 68.82ZM95.1589 67.04L94.1725 67.2044L94.6325 69.9644L95.6189 69.8L96.6053 69.6356L96.1453 66.8756L95.1589 67.04ZM95.6189 69.8V68.8H93.5389V69.8V70.8H95.6189V69.8ZM93.5389 69.8L94.5264 69.9574L94.9664 67.1974L93.9789 67.04L92.9914 66.8826L92.5514 69.6426L93.5389 69.8ZM93.9789 67.04L93.3311 66.2782L91.1911 68.0982L91.8389 68.86L92.4868 69.6218L94.6268 67.8018L93.9789 67.04ZM91.8389 68.86L92.7066 68.3629L91.6066 66.4429L90.7389 66.94L89.8712 67.4371L90.9712 69.3571L91.8389 68.86ZM90.7389 66.94L91.0789 67.8804L93.6789 66.9404L93.3389 66L92.9989 65.0596L90.3989 65.9996L90.7389 66.94ZM93.3389 66L93.6683 65.0558L91.0883 64.1558L90.7589 65.1L90.4295 66.0442L93.0095 66.9442L93.3389 66ZM90.7589 65.1L91.6335 65.5848L92.6535 63.7448L91.7789 63.26L90.9043 62.7752L89.8843 64.6152L90.7589 65.1ZM91.7789 63.26L91.1577 64.0436L93.3777 65.8036L93.9989 65.02L94.6202 64.2364L92.4002 62.4764L91.7789 63.26ZM93.9989 65.02L94.9855 64.8568L94.5255 62.0768L93.5389 62.24L92.5523 62.4032L93.0123 65.1832L93.9989 65.02ZM93.5389 62.24V63.24H95.6389V62.24V61.24H93.5389V62.24ZM95.6389 62.24L94.6535 62.0699L94.1735 64.8499L95.1589 65.02L96.1443 65.1901L96.6243 62.4101L95.6389 62.24ZM95.1589 65.02L95.7792 65.8043L97.9792 64.0643L97.3589 63.28L96.7386 62.4957L94.5386 64.2357L95.1589 65.02Z" fill="black" mask="url(#path-5-outside-1_31_105)"/>
<circle cx="108.5" cy="81.5" r="11.5" fill="#E63946"/>
<path d="M104 77L113.269 86.0021" stroke="#F7F7FF" stroke-width="4" stroke-linecap="round"/>
<path d="M113.269 77L104 86.0021" stroke="#F7F7FF" stroke-width="4" stroke-linecap="round"/>
<rect x="24" y="40" width="15" height="11" rx="2" fill="#F7F7FF"/>
<path d="M31.8589 45.428C31.686 45.5461 31.4573 45.5439 31.2867 45.4225L23.6409 39.9827C23.2423 39.6989 23.4466 39.0706 23.9359 39.0753L39.3317 39.225C39.8209 39.2298 40.0129 39.8619 39.6089 40.1379L31.8589 45.428Z" stroke="#E63946"/>
</svg>
