<svg width="127" height="127" viewBox="0 0 127 127" fill="none" xmlns="http://www.w3.org/2000/svg">
<rect x="15" y="44" width="96" height="40" rx="6" stroke="#E63946" stroke-width="4"/>
<rect x="21" y="38" width="49" height="16" rx="2" fill="#E63946"/>
<path d="M27.02 42.44C27.7933 42.44 28.4633 42.5833 29.03 42.87C29.5967 43.1567 30.03 43.56 30.33 44.08C30.6367 44.6 30.79 45.2 30.79 45.88C30.79 46.4267 30.6933 46.9433 30.5 47.43C30.3133 47.9167 30.04 48.31 29.68 48.61C29.32 48.91 28.8933 49.06 28.4 49.06C28.0533 49.06 27.7733 48.99 27.56 48.85C27.3467 48.7033 27.21 48.4967 27.15 48.23C26.9567 48.49 26.7067 48.6967 26.4 48.85C26.0933 48.9967 25.77 49.07 25.43 49.07C24.9233 49.07 24.5267 48.92 24.24 48.62C23.9533 48.3133 23.81 47.8967 23.81 47.37C23.81 46.87 23.9133 46.4033 24.12 45.97C24.3267 45.5367 24.6133 45.19 24.98 44.93C25.3467 44.6633 25.76 44.53 26.22 44.53C26.7933 44.53 27.1867 44.73 27.4 45.13L27.49 44.61H28.66L28.19 47.31C28.17 47.4367 28.16 47.5533 28.16 47.66C28.16 47.82 28.1933 47.94 28.26 48.02C28.3267 48.1 28.44 48.14 28.6 48.14C28.84 48.14 29.04 48.0267 29.2 47.8C29.3667 47.5733 29.49 47.29 29.57 46.95C29.6567 46.61 29.7 46.27 29.7 45.93C29.7 45.1233 29.4533 44.5 28.96 44.06C28.4667 43.6133 27.77 43.39 26.87 43.39C26.1033 43.39 25.41 43.5767 24.79 43.95C24.17 44.3167 23.6833 44.82 23.33 45.46C22.9833 46.0933 22.81 46.8 22.81 47.58C22.81 48.4067 23.0533 49.0433 23.54 49.49C24.0333 49.9367 24.73 50.16 25.63 50.16C26.2767 50.16 26.8467 50.0433 27.34 49.81L27.54 50.73C26.9067 50.9967 26.2033 51.13 25.43 51.13C24.6833 51.13 24.03 50.9867 23.47 50.7C22.91 50.42 22.4767 50.02 22.17 49.5C21.8633 48.98 21.71 48.3767 21.71 47.69C21.71 46.71 21.9367 45.82 22.39 45.02C22.85 44.22 23.4833 43.59 24.29 43.13C25.1033 42.67 26.0133 42.44 27.02 42.44ZM25.87 48.03C26.11 48.03 26.33 47.96 26.53 47.82C26.73 47.68 26.8867 47.4933 27 47.26C27.12 47.0267 27.18 46.7767 27.18 46.51C27.18 46.23 27.1033 46.0033 26.95 45.83C26.7967 45.6567 26.5833 45.57 26.31 45.57C26.0633 45.57 25.8467 45.6467 25.66 45.8C25.4733 45.9467 25.3267 46.14 25.22 46.38C25.12 46.62 25.07 46.8733 25.07 47.14C25.07 47.4133 25.1367 47.63 25.27 47.79C25.4033 47.95 25.6033 48.03 25.87 48.03ZM33.5978 43.15V44.9H35.9478V46.01H33.5978V47.86H36.2478V49H32.1978V42.01H36.2478V43.15H33.5978ZM41.7801 44.84V46.02H37.5401V44.84H41.7801ZM44.7502 47.89H47.0502V49H43.3502V42.02H44.7502V47.89ZM48.65 42.8C48.4033 42.8 48.1967 42.7233 48.03 42.57C47.87 42.41 47.79 42.2133 47.79 41.98C47.79 41.7467 47.87 41.5533 48.03 41.4C48.1967 41.24 48.4033 41.16 48.65 41.16C48.8967 41.16 49.1 41.24 49.26 41.4C49.4267 41.5533 49.51 41.7467 49.51 41.98C49.51 42.2133 49.4267 42.41 49.26 42.57C49.1 42.7233 48.8967 42.8 48.65 42.8ZM49.34 43.46V49H47.94V43.46H49.34ZM52.1232 44.27C52.3032 44.0033 52.5499 43.7867 52.8632 43.62C53.1832 43.4533 53.5465 43.37 53.9532 43.37C54.4265 43.37 54.8532 43.4867 55.2332 43.72C55.6199 43.9533 55.9232 44.2867 56.1432 44.72C56.3699 45.1467 56.4832 45.6433 56.4832 46.21C56.4832 46.7767 56.3699 47.28 56.1432 47.72C55.9232 48.1533 55.6199 48.49 55.2332 48.73C54.8532 48.97 54.4265 49.09 53.9532 49.09C53.5399 49.09 53.1765 49.01 52.8632 48.85C52.5565 48.6833 52.3099 48.47 52.1232 48.21V49H50.7232V41.6H52.1232V44.27ZM55.0532 46.21C55.0532 45.8767 54.9832 45.59 54.8432 45.35C54.7099 45.1033 54.5299 44.9167 54.3032 44.79C54.0832 44.6633 53.8432 44.6 53.5832 44.6C53.3299 44.6 53.0899 44.6667 52.8632 44.8C52.6432 44.9267 52.4632 45.1133 52.3232 45.36C52.1899 45.6067 52.1232 45.8967 52.1232 46.23C52.1232 46.5633 52.1899 46.8533 52.3232 47.1C52.4632 47.3467 52.6432 47.5367 52.8632 47.67C53.0899 47.7967 53.3299 47.86 53.5832 47.86C53.8432 47.86 54.0832 47.7933 54.3032 47.66C54.5299 47.5267 54.7099 47.3367 54.8432 47.09C54.9832 46.8433 55.0532 46.55 55.0532 46.21ZM58.9005 44.32C59.0805 44.0267 59.3139 43.7967 59.6005 43.63C59.8939 43.4633 60.2272 43.38 60.6005 43.38V44.85H60.2305C59.7905 44.85 59.4572 44.9533 59.2305 45.16C59.0105 45.3667 58.9005 45.7267 58.9005 46.24V49H57.5005V43.46H58.9005V44.32ZM61.1835 46.21C61.1835 45.65 61.2935 45.1533 61.5135 44.72C61.7402 44.2867 62.0435 43.9533 62.4235 43.72C62.8102 43.4867 63.2402 43.37 63.7135 43.37C64.1268 43.37 64.4868 43.4533 64.7935 43.62C65.1068 43.7867 65.3568 43.9967 65.5435 44.25V43.46H66.9535V49H65.5435V48.19C65.3635 48.45 65.1135 48.6667 64.7935 48.84C64.4802 49.0067 64.1168 49.09 63.7035 49.09C63.2368 49.09 62.8102 48.97 62.4235 48.73C62.0435 48.49 61.7402 48.1533 61.5135 47.72C61.2935 47.28 61.1835 46.7767 61.1835 46.21ZM65.5435 46.23C65.5435 45.89 65.4768 45.6 65.3435 45.36C65.2102 45.1133 65.0302 44.9267 64.8035 44.8C64.5768 44.6667 64.3335 44.6 64.0735 44.6C63.8135 44.6 63.5735 44.6633 63.3535 44.79C63.1335 44.9167 62.9535 45.1033 62.8135 45.35C62.6802 45.59 62.6135 45.8767 62.6135 46.21C62.6135 46.5433 62.6802 46.8367 62.8135 47.09C62.9535 47.3367 63.1335 47.5267 63.3535 47.66C63.5802 47.7933 63.8202 47.86 64.0735 47.86C64.3335 47.86 64.5768 47.7967 64.8035 47.67C65.0302 47.5367 65.2102 47.35 65.3435 47.11C65.4768 46.8633 65.5435 46.57 65.5435 46.23Z" fill="#D9D9D9"/>
<path d="M91.5 38.7511V87.5146" stroke="black" stroke-width="4" stroke-linecap="round"/>
<path d="M86 35L91 38.751" stroke="black" stroke-width="4" stroke-linecap="round"/>
<path d="M97 92.0157L92 88.2647" stroke="black" stroke-width="4" stroke-linecap="round"/>
<path d="M97 35L92 38.751" stroke="black" stroke-width="4" stroke-linecap="round"/>
<path d="M86 92.0157L91 88.2647" stroke="black" stroke-width="4" stroke-linecap="round"/>
</svg>
