<svg width="142" height="142" viewBox="0 0 142 142" fill="none" xmlns="http://www.w3.org/2000/svg">
<circle cx="107.539" cy="98.6205" r="4" transform="rotate(-16.7943 107.539 98.6205)" fill="#0EB55C"/>
<circle cx="117.231" cy="87.2315" r="5" transform="rotate(-16.7943 117.231 87.2315)" fill="#0EB55C"/>
<circle cx="120.478" cy="69.4778" r="6" transform="rotate(-16.7943 120.478 69.4778)" fill="#0EB55C"/>
<circle cx="113.724" cy="50.724" r="7" transform="rotate(-16.7943 113.724 50.724)" fill="#0EB55C"/>
<rect x="81.1918" y="43.8994" width="24" height="7" rx="3.5" transform="rotate(-16.7943 81.1918 43.8994)" fill="#0EB55C"/>
<rect x="72.9359" y="46" width="32" height="8" rx="4" transform="rotate(82.741 72.9359 46)" fill="#0EB55C"/>
<rect x="51" y="87.9901" width="29.2566" height="8" rx="4" transform="rotate(-40.4728 51 87.9901)" fill="#0EB55C"/>
<rect x="108.097" y="16.2854" width="24" height="7" rx="3.5" transform="rotate(92.7153 108.097 16.2854)" fill="#0EB55C"/>
<path d="M105.119 43.6152C107.811 41.4546 108.267 37.4872 105.787 35.0856C100.227 29.7002 93.4709 25.6584 86.0344 23.3139C76.603 20.3403 66.5016 20.2303 57.0077 22.9978C47.5137 25.7652 39.0536 31.2857 32.6972 38.8613C26.3408 46.4369 22.3735 55.7273 21.2971 65.5576C20.2207 75.3879 22.0835 85.3166 26.6499 94.0883C31.2163 102.86 38.2813 110.08 46.9514 114.837C55.6215 119.593 65.5073 121.672 75.3587 120.81C83.1264 120.13 90.5975 117.646 97.1911 113.591C100.131 111.783 100.545 107.811 98.3848 105.119V105.119C96.2242 102.427 92.3088 102.05 89.2957 103.734C84.6901 106.308 79.5717 107.893 74.2691 108.357C66.8805 109.004 59.4661 107.445 52.9636 103.878C46.461 100.31 41.1623 94.8949 37.7374 88.3162C34.3126 81.7375 32.9155 74.2909 33.7228 66.9182C34.5301 59.5454 37.5056 52.5777 42.2729 46.896C47.0402 41.2143 53.3853 37.0739 60.5058 34.9983C67.6262 32.9227 75.2022 33.0052 82.2758 35.2354C87.3524 36.8359 92.0065 39.4911 95.9459 43.0008C98.5232 45.297 102.427 45.7758 105.119 43.6152V43.6152Z" fill="#0EB55C"/>
<rect width="5.6753" height="1.46605" transform="matrix(0.83205 0.5547 -0.830139 0.557556 110.217 49.3469)" fill="#F7F7FF"/>
<rect width="3.74078" height="1.46605" transform="matrix(0.83205 0.5547 0 1 110.599 51.459)" fill="#F7F7FF"/>
<rect width="3.45303" height="1.46605" transform="matrix(-0.83205 0.5547 0 1 116.584 51.6182)" fill="#F7F7FF"/>
<rect width="1.36065" height="5.6753" transform="matrix(0.83205 0.5547 -0.830139 0.557556 113.711 47)" fill="#F7F7FF"/>
<rect width="1.36065" height="4.17989" transform="matrix(0.83205 0.5547 -0.830139 0.557556 114.255 49.0348)" fill="#F7F7FF"/>
<rect width="1.36065" height="5.6753" transform="matrix(0.83205 0.5547 -0.830139 0.557556 117.294 49.3887)" fill="#F7F7FF"/>
<rect width="1.36065" height="0.771835" transform="matrix(0.83205 0.5547 -0.830139 0.557556 116.382 50.0059)" fill="#0EB55C"/>
<rect width="5.6753" height="1.46605" transform="matrix(0.83205 0.5547 -0.830139 0.557556 110.217 49.3469)" fill="#F7F7FF"/>
<rect width="3.74078" height="1.46605" transform="matrix(0.83205 0.5547 0 1 110.599 51.459)" fill="#F7F7FF"/>
<rect width="3.45303" height="1.46605" transform="matrix(-0.83205 0.5547 0 1 116.584 51.6182)" fill="#F7F7FF"/>
<rect width="1.36065" height="5.6753" transform="matrix(0.83205 0.5547 -0.830139 0.557556 113.711 47)" fill="#F7F7FF"/>
<rect width="1.36065" height="4.17989" transform="matrix(0.83205 0.5547 -0.830139 0.557556 114.255 49.0348)" fill="#F7F7FF"/>
<rect width="1.36065" height="5.6753" transform="matrix(0.83205 0.5547 -0.830139 0.557556 117.294 49.3887)" fill="#F7F7FF"/>
<rect x="0.000368764" y="0.214619" width="0.974731" height="0.385917" transform="matrix(0.83205 0.5547 -0.830139 0.557556 116.56 50.1006)" fill="#F7F7FF" stroke="#F7F7FF" stroke-width="0.385917"/>
<mask id="path-24-inside-1_199_180" fill="white">
<path d="M116.876 51.1864L117.512 50.7622V52.304L117.193 51.9135L116.876 52.7282V51.1864Z"/>
</mask>
<path d="M116.876 51.1864L117.512 50.7622V52.304L117.193 51.9135L116.876 52.7282V51.1864Z" fill="#0EB55C"/>
<path d="M116.876 51.1864V49.1864L115.212 50.2958V52.2958L116.876 51.1864ZM117.512 50.7622L119.177 49.6528V47.6528L117.512 48.7622V50.7622ZM117.512 52.304L116.109 54.3139L119.177 58.0606V51.1946L117.512 52.304ZM116.876 52.7282L115.212 53.8376V60.7634L118.284 52.8558L116.876 52.7282ZM117.193 51.9135L118.596 49.9036L117.185 48.1803L115.785 51.7859L117.193 51.9135ZM116.876 51.1864V53.1864L117.512 52.7622V50.7622V48.7622L116.876 49.1864V51.1864ZM117.512 50.7622L115.848 51.8716V53.4134L117.512 52.304L119.177 51.1946V49.6528L117.512 50.7622ZM116.876 52.7282L118.54 51.6188V50.077L116.876 51.1864L115.212 52.2958V53.8376L116.876 52.7282ZM117.512 52.304L118.916 50.2941L118.596 49.9036L117.193 51.9135L115.789 53.9233L116.109 54.3139L117.512 52.304ZM117.193 51.9135L115.785 51.7859L115.468 52.6006L116.876 52.7282L118.284 52.8558L118.601 52.041L117.193 51.9135Z" fill="#F7F7FF" mask="url(#path-24-inside-1_199_180)"/>
<rect width="4.96589" height="1.2828" transform="matrix(0.83205 0.5547 -0.830139 0.557556 117.065 68.0536)" fill="#F7F7FF"/>
<rect width="3.27318" height="1.2828" transform="matrix(0.83205 0.5547 0 1 117.399 69.9016)" fill="#F7F7FF"/>
<rect width="3.0214" height="1.2828" transform="matrix(-0.83205 0.5547 0 1 122.636 70.0409)" fill="#F7F7FF"/>
<rect width="1.19057" height="4.96589" transform="matrix(0.83205 0.5547 -0.830139 0.557556 120.122 66)" fill="#F7F7FF"/>
<rect width="1.19057" height="3.6574" transform="matrix(0.83205 0.5547 -0.830139 0.557556 120.598 67.7804)" fill="#F7F7FF"/>
<rect width="1.19057" height="4.96589" transform="matrix(0.83205 0.5547 -0.830139 0.557556 123.258 68.0901)" fill="#F7F7FF"/>
<rect width="1.19057" height="0.675355" transform="matrix(0.83205 0.5547 -0.830139 0.557556 122.459 68.63)" fill="#0EB55C"/>
<rect width="4.96589" height="1.2828" transform="matrix(0.83205 0.5547 -0.830139 0.557556 117.065 68.0536)" fill="#F7F7FF"/>
<rect width="3.27318" height="1.2828" transform="matrix(0.83205 0.5547 0 1 117.399 69.9016)" fill="#F7F7FF"/>
<rect width="3.0214" height="1.2828" transform="matrix(-0.83205 0.5547 0 1 122.636 70.0409)" fill="#F7F7FF"/>
<rect width="1.19057" height="4.96589" transform="matrix(0.83205 0.5547 -0.830139 0.557556 120.122 66)" fill="#F7F7FF"/>
<rect width="1.19057" height="3.6574" transform="matrix(0.83205 0.5547 -0.830139 0.557556 120.598 67.7804)" fill="#F7F7FF"/>
<rect width="1.19057" height="4.96589" transform="matrix(0.83205 0.5547 -0.830139 0.557556 123.258 68.0901)" fill="#F7F7FF"/>
<rect x="0.000322668" y="0.187792" width="0.852889" height="0.337678" transform="matrix(0.83205 0.5547 -0.830139 0.557556 122.615 68.7129)" fill="#F7F7FF" stroke="#F7F7FF" stroke-width="0.337678"/>
<mask id="path-40-inside-2_199_180" fill="white">
<path d="M122.892 69.6631L123.448 69.2919V70.641L123.169 70.2993L122.892 71.0122V69.6631Z"/>
</mask>
<path d="M122.892 69.6631L123.448 69.2919V70.641L123.169 70.2993L122.892 71.0122V69.6631Z" fill="#0EB55C"/>
<path d="M122.892 69.6631V67.6631L121.228 68.7725V70.7725L122.892 69.6631ZM123.448 69.2919L125.112 68.1825V66.1825L123.448 67.2919V69.2919ZM123.448 70.641L122.045 72.6509L125.112 76.3976V69.5316L123.448 70.641ZM122.892 71.0122L121.228 72.1216V79.0474L124.3 71.1398L122.892 71.0122ZM123.169 70.2993L124.572 68.2894L123.161 66.5661L121.761 70.1717L123.169 70.2993ZM122.892 69.6631V71.6631L123.448 71.2919V69.2919V67.2919L122.892 67.6631V69.6631ZM123.448 69.2919L121.784 70.4013V71.7504L123.448 70.641L125.112 69.5316V68.1825L123.448 69.2919ZM122.892 71.0122L124.556 69.9028V68.5537L122.892 69.6631L121.228 70.7725V72.1216L122.892 71.0122ZM123.448 70.641L124.852 68.6311L124.572 68.2894L123.169 70.2993L121.765 72.3091L122.045 72.6509L123.448 70.641ZM123.169 70.2993L121.761 70.1717L121.484 70.8846L122.892 71.0122L124.3 71.1398L124.576 70.4268L123.169 70.2993Z" fill="#F7F7FF" mask="url(#path-40-inside-2_199_180)"/>
<rect width="3.61235" height="0.933149" transform="matrix(0.83205 0.5547 -0.830139 0.557556 114.775 86.4939)" fill="#F7F7FF"/>
<rect width="2.38102" height="0.933149" transform="matrix(0.83205 0.5547 0 1 115.018 87.8381)" fill="#F7F7FF"/>
<rect width="2.19787" height="0.933149" transform="matrix(-0.83205 0.5547 0 1 118.827 87.9395)" fill="#F7F7FF"/>
<rect width="0.866058" height="3.61235" transform="matrix(0.83205 0.5547 -0.830139 0.557556 116.999 85)" fill="#F7F7FF"/>
<rect width="0.866058" height="2.66051" transform="matrix(0.83205 0.5547 -0.830139 0.557556 117.345 86.295)" fill="#F7F7FF"/>
<rect width="0.866058" height="3.61235" transform="matrix(0.83205 0.5547 -0.830139 0.557556 119.279 86.5204)" fill="#F7F7FF"/>
<rect width="0.866058" height="0.491276" transform="matrix(0.83205 0.5547 -0.830139 0.557556 118.699 86.9131)" fill="#0EB55C"/>
<rect width="3.61235" height="0.933149" transform="matrix(0.83205 0.5547 -0.830139 0.557556 114.775 86.4939)" fill="#F7F7FF"/>
<rect width="2.38102" height="0.933149" transform="matrix(0.83205 0.5547 0 1 115.018 87.8381)" fill="#F7F7FF"/>
<rect width="2.19787" height="0.933149" transform="matrix(-0.83205 0.5547 0 1 118.827 87.9395)" fill="#F7F7FF"/>
<rect width="0.866058" height="3.61235" transform="matrix(0.83205 0.5547 -0.830139 0.557556 116.999 85)" fill="#F7F7FF"/>
<rect width="0.866058" height="2.66051" transform="matrix(0.83205 0.5547 -0.830139 0.557556 117.345 86.295)" fill="#F7F7FF"/>
<rect width="0.866058" height="3.61235" transform="matrix(0.83205 0.5547 -0.830139 0.557556 119.279 86.5204)" fill="#F7F7FF"/>
<rect x="0.00023472" y="0.136606" width="0.62042" height="0.245638" transform="matrix(0.83205 0.5547 -0.830139 0.557556 118.812 86.9734)" fill="#F7F7FF" stroke="#F7F7FF" stroke-width="0.245638"/>
<mask id="path-56-inside-3_199_180" fill="white">
<path d="M119.013 87.6647L119.418 87.3947V88.376L119.215 88.1274L119.013 88.646V87.6647Z"/>
</mask>
<path d="M119.013 87.6647L119.418 87.3947V88.376L119.215 88.1274L119.013 88.646V87.6647Z" fill="#0EB55C"/>
<path d="M119.013 87.6647V85.6647L117.349 86.7741V88.7741L119.013 87.6647ZM119.418 87.3947L121.082 86.2853V84.2853L119.418 85.3947V87.3947ZM119.418 88.376L118.014 90.3859L121.082 94.1327V87.2666L119.418 88.376ZM119.013 88.646L117.349 89.7554V96.6812L120.421 88.7736L119.013 88.646ZM119.215 88.1274L120.618 86.1176L119.207 84.3943L117.807 87.9999L119.215 88.1274ZM119.013 87.6647V89.6647L119.418 89.3947V87.3947V85.3947L119.013 85.6647V87.6647ZM119.418 87.3947L117.754 88.5041V89.4854L119.418 88.376L121.082 87.2666V86.2853L119.418 87.3947ZM119.013 88.646L120.677 87.5366V86.5553L119.013 87.6647L117.349 88.7741V89.7554L119.013 88.646ZM119.418 88.376L120.822 86.3661L120.618 86.1176L119.215 88.1274L117.811 90.1373L118.014 90.3859L119.418 88.376ZM119.215 88.1274L117.807 87.9999L117.605 88.5185L119.013 88.646L120.421 88.7736L120.623 88.255L119.215 88.1274Z" fill="#F7F7FF" mask="url(#path-56-inside-3_199_180)"/>
<rect width="2.40823" height="0.622099" transform="matrix(0.83205 0.5547 -0.830139 0.557556 106.516 97.996)" fill="#F7F7FF"/>
<rect width="1.58735" height="0.622099" transform="matrix(0.83205 0.5547 0 1 106.679 98.8921)" fill="#F7F7FF"/>
<rect width="1.46525" height="0.622099" transform="matrix(-0.83205 0.5547 0 1 109.218 98.9596)" fill="#F7F7FF"/>
<rect width="0.577372" height="2.40823" transform="matrix(0.83205 0.5547 -0.830139 0.557556 107.999 97)" fill="#F7F7FF"/>
<rect width="0.577372" height="1.77368" transform="matrix(0.83205 0.5547 -0.830139 0.557556 108.23 97.8634)" fill="#F7F7FF"/>
<rect width="0.577372" height="2.40823" transform="matrix(0.83205 0.5547 -0.830139 0.557556 109.52 98.0135)" fill="#F7F7FF"/>
<rect width="0.577372" height="0.327517" transform="matrix(0.83205 0.5547 -0.830139 0.557556 109.133 98.2754)" fill="#0EB55C"/>
<rect width="2.40823" height="0.622099" transform="matrix(0.83205 0.5547 -0.830139 0.557556 106.516 97.996)" fill="#F7F7FF"/>
<rect width="1.58735" height="0.622099" transform="matrix(0.83205 0.5547 0 1 106.679 98.8921)" fill="#F7F7FF"/>
<rect width="1.46525" height="0.622099" transform="matrix(-0.83205 0.5547 0 1 109.218 98.9596)" fill="#F7F7FF"/>
<rect width="0.577372" height="2.40823" transform="matrix(0.83205 0.5547 -0.830139 0.557556 107.999 97)" fill="#F7F7FF"/>
<rect width="0.577372" height="1.77368" transform="matrix(0.83205 0.5547 -0.830139 0.557556 108.23 97.8634)" fill="#F7F7FF"/>
<rect width="0.577372" height="2.40823" transform="matrix(0.83205 0.5547 -0.830139 0.557556 109.52 98.0135)" fill="#F7F7FF"/>
<rect x="0.00015648" y="0.0910707" width="0.413613" height="0.163759" transform="matrix(0.83205 0.5547 -0.830139 0.557556 109.208 98.3156)" fill="#F7F7FF" stroke="#F7F7FF" stroke-width="0.163759"/>
<mask id="path-72-inside-4_199_180" fill="white">
<path d="M109.342 98.7765L109.612 98.5965V99.2507L109.476 99.085L109.342 99.4307V98.7765Z"/>
</mask>
<path d="M109.342 98.7765L109.612 98.5965V99.2507L109.476 99.085L109.342 99.4307V98.7765Z" fill="#0EB55C"/>
<path d="M109.342 98.7765V96.7765L107.678 97.8859V99.8859L109.342 98.7765ZM109.612 98.5965L111.276 97.4871V95.4871L109.612 96.5965V98.5965ZM109.612 99.2507L108.208 101.261L111.276 105.007V98.1413L109.612 99.2507ZM109.342 99.4307L107.678 100.54V107.466L110.75 99.5583L109.342 99.4307ZM109.476 99.085L110.88 97.0751L109.469 95.3519L108.068 98.9574L109.476 99.085ZM109.342 98.7765V100.776L109.612 100.596V98.5965V96.5965L109.342 96.7765V98.7765ZM109.612 98.5965L107.948 99.7059V100.36L109.612 99.2507L111.276 98.1413V97.4871L109.612 98.5965ZM109.342 99.4307L111.006 98.3213V97.6671L109.342 98.7765L107.678 99.8859V100.54L109.342 99.4307ZM109.612 99.2507L111.016 97.2408L110.88 97.0751L109.476 99.085L108.073 101.095L108.208 101.261L109.612 99.2507ZM109.476 99.085L108.068 98.9574L107.934 99.3032L109.342 99.4307L110.75 99.5583L110.884 99.2126L109.476 99.085Z" fill="#F7F7FF" mask="url(#path-72-inside-4_199_180)"/>
</svg>
